CalSansUI-TextLight.ufo
<glyph name="slash" format="2">
  <advance width="469.0"/>
  <unicode hex="002F"/>
  <outline>
    <contour>
      <point x="57.0" y="-13.0" type="line"/>
      <point x="131.0" y="-13.0" type="line"/>
      <point x="407.0" y="740.0" type="line"/>
      <point x="331.0" y="740.0" type="line"/>
    </contour>
  </outline>
</glyph>
<glyph name="eight" format="2">
  <advance width="558.0"/>
  <unicode hex="0038"/>
  <outline>
    <contour>
      <point x="279.0" y="-13.0" type="curve" smooth="yes"/>
      <point x="407.0" y="-13.0"/>
      <point x="503.0" y="70.0"/>
      <point x="503.0" y="196.0" type="curve" smooth="yes"/>
      <point x="503.0" y="287.0"/>
      <point x="449.0" y="350.0"/>
      <point x="380.0" y="373.0" type="curve"/>
      <point x="380.0" y="377.0" type="line"/>
      <point x="442.0" y="404.0"/>
      <point x="484.0" y="463.0"/>
      <point x="484.0" y="529.0" type="curve" smooth="yes"/>
      <point x="484.0" y="638.0"/>
      <point x="396.0" y="713.0"/>
      <point x="279.0" y="713.0" type="curve" smooth="yes"/>
      <point x="162.0" y="713.0"/>
      <point x="77.0" y="638.0"/>
      <point x="77.0" y="526.0" type="curve" smooth="yes"/>
      <point x="77.0" y="463.0"/>
      <point x="116.0" y="404.0"/>
      <point x="179.0" y="377.0" type="curve"/>
      <point x="179.0" y="373.0" type="line"/>
      <point x="109.0" y="350.0"/>
      <point x="55.0" y="287.0"/>
      <point x="55.0" y="193.0" type="curve" smooth="yes"/>
      <point x="55.0" y="70.0"/>
      <point x="151.0" y="-13.0"/>
    </contour>
    <contour>
      <point x="279.0" y="61.0" type="curve" smooth="yes"/>
      <point x="202.0" y="61.0"/>
      <point x="141.0" y="117.0"/>
      <point x="141.0" y="201.0" type="curve" smooth="yes"/>
      <point x="141.0" y="274.0"/>
      <point x="191.0" y="336.0"/>
      <point x="279.0" y="336.0" type="curve" smooth="yes"/>
      <point x="367.0" y="336.0"/>
      <point x="417.0" y="274.0"/>
      <point x="417.0" y="198.0" type="curve" smooth="yes"/>
      <point x="417.0" y="117.0"/>
      <point x="356.0" y="61.0"/>
    </contour>
    <contour>
      <point x="282.0" y="410.0" type="curve" smooth="yes"/>
      <point x="204.0" y="410.0"/>
      <point x="163.0" y="475.0"/>
      <point x="163.0" y="526.0" type="curve" smooth="yes"/>
      <point x="163.0" y="594.0"/>
      <point x="218.0" y="639.0"/>
      <point x="279.0" y="639.0" type="curve" smooth="yes"/>
      <point x="341.0" y="639.0"/>
      <point x="398.0" y="594.0"/>
      <point x="398.0" y="523.0" type="curve" smooth="yes"/>
      <point x="398.0" y="468.0"/>
      <point x="359.0" y="410.0"/>
    </contour>
  </outline>
</glyph>
<glyph name="less" format="2">
  <advance width="596.0"/>
  <unicode hex="003C"/>
  <outline>
    <contour>
      <point x="383.0" y="70.0" type="line"/>
      <point x="490.0" y="70.0" type="line"/>
      <point x="230.0" y="312.0" type="line"/>
      <point x="230.0" y="317.0" type="line"/>
      <point x="490.0" y="550.0" type="line"/>
      <point x="383.0" y="550.0" type="line"/>
      <point x="120.0" y="310.0" type="line"/>
    </contour>
  </outline>
</glyph>
<glyph name="at" format="2">
  <advance width="995.0"/>
  <unicode hex="0040"/>
  <outline>
    <contour>
      <point x="517.0" y="-216.0" type="curve" smooth="yes"/>
      <point x="571.0" y="-216.0"/>
      <point x="623.0" y="-208.0"/>
      <point x="671.0" y="-192.0" type="curve"/>
      <point x="650.0" y="-130.0" type="line"/>
      <point x="610.0" y="-143.0"/>
      <point x="568.0" y="-151.0"/>
      <point x="519.0" y="-151.0" type="curve" smooth="yes"/>
      <point x="282.0" y="-151.0"/>
      <point x="127.0" y="23.0"/>
      <point x="127.0" y="248.0" type="curve" smooth="yes"/>
      <point x="127.0" y="470.0"/>
      <point x="282.0" y="649.0"/>
      <point x="516.0" y="649.0" type="curve" smooth="yes"/>
      <point x="754.0" y="649.0"/>
      <point x="873.0" y="467.0"/>
      <point x="873.0" y="312.0" type="curve" smooth="yes"/>
      <point x="873.0" y="198.0"/>
      <point x="829.0" y="104.0"/>
      <point x="764.0" y="104.0" type="curve" smooth="yes"/>
      <point x="720.0" y="104.0"/>
      <point x="704.0" y="133.0"/>
      <point x="704.0" y="195.0" type="curve" smooth="yes"/>
      <point x="704.0" y="215.0"/>
      <point x="706.0" y="236.0"/>
      <point x="708.0" y="256.0" type="curve" smooth="yes"/>
      <point x="731.0" y="462.0" type="line"/>
      <point x="651.0" y="462.0" type="line"/>
      <point x="644.0" y="383.0" type="line"/>
      <point x="639.0" y="383.0" type="line"/>
      <point x="618.0" y="440.0"/>
      <point x="576.0" y="476.0"/>
      <point x="504.0" y="476.0" type="curve" smooth="yes"/>
      <point x="368.0" y="476.0"/>
      <point x="268.0" y="368.0"/>
      <point x="268.0" y="240.0" type="curve" smooth="yes"/>
      <point x="268.0" y="120.0"/>
      <point x="346.0" y="34.0"/>
      <point x="462.0" y="34.0" type="curve" smooth="yes"/>
      <point x="543.0" y="34.0"/>
      <point x="598.0" y="77.0"/>
      <point x="622.0" y="146.0" type="curve"/>
      <point x="627.0" y="146.0" type="line"/>
      <point x="635.0" y="77.0"/>
      <point x="683.0" y="34.0"/>
      <point x="754.0" y="34.0" type="curve" smooth="yes"/>
      <point x="871.0" y="34.0"/>
      <point x="942.0" y="161.0"/>
      <point x="942.0" y="296.0" type="curve" smooth="yes"/>
      <point x="942.0" y="507.0"/>
      <point x="781.0" y="713.0"/>
      <point x="517.0" y="713.0" type="curve" smooth="yes"/>
      <point x="250.0" y="713.0"/>
      <point x="58.0" y="507.0"/>
      <point x="58.0" y="248.0" type="curve" smooth="yes"/>
      <point x="58.0" y="-13.0"/>
      <point x="250.0" y="-216.0"/>
    </contour>
    <contour>
      <point x="478.0" y="108.0" type="curve" smooth="yes"/>
      <point x="399.0" y="108.0"/>
      <point x="349.0" y="163.0"/>
      <point x="349.0" y="242.0" type="curve" smooth="yes"/>
      <point x="349.0" y="333.0"/>
      <point x="414.0" y="402.0"/>
      <point x="513.0" y="402.0" type="curve" smooth="yes"/>
      <point x="573.0" y="402.0"/>
      <point x="628.0" y="346.0"/>
      <point x="628.0" y="271.0" type="curve" smooth="yes"/>
      <point x="628.0" y="181.0"/>
      <point x="558.0" y="108.0"/>
    </contour>
  </outline>
</glyph>
<glyph name="J" format="2">
  <advance width="433.0"/>
  <unicode hex="004A"/>
  <anchor x="177.0" y="0.0" name="bottom"/>
  <anchor x="240.0" y="0.0" name="ogonek"/>
  <anchor x="314.0" y="700.0" name="top"/>
  <outline>
    <contour>
      <point x="177.0" y="-12.0" type="curve" smooth="yes"/>
      <point x="290.0" y="-9.0"/>
      <point x="356.0" y="60.0"/>
      <point x="356.0" y="186.0" type="curve" smooth="yes"/>
      <point x="356.0" y="700.0" type="line"/>
      <point x="272.0" y="700.0" type="line"/>
      <point x="272.0" y="186.0" type="line" smooth="yes"/>
      <point x="272.0" y="109.0"/>
      <point x="232.0" y="66.0"/>
      <point x="171.0" y="66.0" type="curve" smooth="yes"/>
      <point x="138.0" y="66.0"/>
      <point x="110.0" y="74.0"/>
      <point x="88.0" y="100.0" type="curve"/>
      <point x="34.0" y="35.0" type="line"/>
      <point x="71.0" y="-2.0"/>
      <point x="120.0" y="-13.0"/>
    </contour>
  </outline>
</glyph>
<glyph name="o" format="2">
  <advance width="569.0"/>
  <unicode hex="006F"/>
  <anchor x="284.0" y="0.0" name="bottom"/>
  <anchor x="284.0" y="244.0" name="center"/>
  <anchor x="290.0" y="0.0" name="ogonek"/>
  <anchor x="284.0" y="490.0" name="top"/>
  <anchor x="451.0" y="490.0" name="topright"/>
  <outline>
    <contour>
      <point x="284.0" y="-13.0" type="curve" smooth="yes"/>
      <point x="429.0" y="-13.0"/>
      <point x="533.0" y="95.0"/>
      <point x="533.0" y="246.0" type="curve" smooth="yes"/>
      <point x="533.0" y="396.0"/>
      <point x="429.0" y="503.0"/>
      <point x="284.0" y="503.0" type="curve" smooth="yes"/>
      <point x="140.0" y="503.0"/>
      <point x="36.0" y="395.0"/>
      <point x="36.0" y="244.0" type="curve" smooth="yes"/>
      <point x="36.0" y="94.0"/>
      <point x="140.0" y="-13.0"/>
    </contour>
    <contour>
      <point x="284.0" y="61.0" type="curve" smooth="yes"/>
      <point x="181.0" y="61.0"/>
      <point x="116.0" y="141.0"/>
      <point x="116.0" y="245.0" type="curve" smooth="yes"/>
      <point x="116.0" y="351.0"/>
      <point x="181.0" y="429.0"/>
      <point x="284.0" y="429.0" type="curve" smooth="yes"/>
      <point x="387.0" y="429.0"/>
      <point x="453.0" y="349.0"/>
      <point x="453.0" y="245.0" type="curve" smooth="yes"/>
      <point x="453.0" y="139.0"/>
      <point x="387.0" y="61.0"/>
    </contour>
  </outline>
</glyph>
<glyph name="s" format="2">
  <advance width="463.0"/>
  <unicode hex="0073"/>
  <anchor x="231.0" y="0.0" name="bottom"/>
  <anchor x="306.0" y="0.0" name="ogonek"/>
  <anchor x="240.0" y="490.0" name="top"/>
  <outline>
    <contour>
      <point x="231.0" y="-13.0" type="curve" smooth="yes"/>
      <point x="327.0" y="-13.0"/>
      <point x="412.0" y="43.0"/>
      <point x="412.0" y="139.0" type="curve" smooth="yes"/>
      <point x="412.0" y="215.0"/>
      <point x="363.0" y="260.0"/>
      <point x="248.0" y="286.0" type="curve" smooth="yes"/>
      <point x="164.0" y="305.0"/>
      <point x="143.0" y="327.0"/>
      <point x="143.0" y="367.0" type="curve" smooth="yes"/>
      <point x="143.0" y="406.0"/>
      <point x="187.0" y="435.0"/>
      <point x="240.0" y="435.0" type="curve" smooth="yes"/>
      <point x="286.0" y="435.0"/>
      <point x="322.0" y="415.0"/>
      <point x="350.0" y="370.0" type="curve"/>
      <point x="411.0" y="415.0" type="line"/>
      <point x="368.0" y="477.0"/>
      <point x="316.0" y="503.0"/>
      <point x="235.0" y="503.0" type="curve" smooth="yes"/>
      <point x="139.0" y="503.0"/>
      <point x="62.0" y="442.0"/>
      <point x="62.0" y="360.0" type="curve" smooth="yes"/>
      <point x="62.0" y="285.0"/>
      <point x="112.0" y="239.0"/>
      <point x="215.0" y="214.0" type="curve" smooth="yes"/>
      <point x="296.0" y="195.0"/>
      <point x="331.0" y="173.0"/>
      <point x="331.0" y="132.0" type="curve" smooth="yes"/>
      <point x="331.0" y="83.0"/>
      <point x="285.0" y="59.0"/>
      <point x="227.0" y="59.0" type="curve" smooth="yes"/>
      <point x="172.0" y="59.0"/>
      <point x="137.0" y="81.0"/>
      <point x="94.0" y="126.0" type="curve"/>
      <point x="40.0" y="70.0" type="line"/>
      <point x="98.0" y="13.0"/>
      <point x="149.0" y="-13.0"/>
    </contour>
  </outline>
</glyph>
<glyph name="copyright" format="2">
  <advance width="896.0"/>
  <unicode hex="00A9"/>
  <outline>
    <contour>
      <point x="448.0" y="-50.0" type="curve" smooth="yes"/>
      <point x="671.0" y="-50.0"/>
      <point x="842.0" y="129.0"/>
      <point x="842.0" y="352.0" type="curve" smooth="yes"/>
      <point x="842.0" y="576.0"/>
      <point x="671.0" y="754.0"/>
      <point x="448.0" y="754.0" type="curve" smooth="yes"/>
      <point x="225.0" y="754.0"/>
      <point x="54.0" y="576.0"/>
      <point x="54.0" y="352.0" type="curve" smooth="yes"/>
      <point x="54.0" y="129.0"/>
      <point x="225.0" y="-50.0"/>
    </contour>
    <contour>
      <point x="448.0" y="14.0" type="curve" smooth="yes"/>
      <point x="263.0" y="14.0"/>
      <point x="122.0" y="166.0"/>
      <point x="122.0" y="352.0" type="curve" smooth="yes"/>
      <point x="122.0" y="537.0"/>
      <point x="263.0" y="689.0"/>
      <point x="448.0" y="689.0" type="curve" smooth="yes"/>
      <point x="634.0" y="689.0"/>
      <point x="774.0" y="537.0"/>
      <point x="774.0" y="352.0" type="curve" smooth="yes"/>
      <point x="774.0" y="166.0"/>
      <point x="634.0" y="14.0"/>
    </contour>
    <contour>
      <point x="456.0" y="99.0" type="curve" smooth="yes"/>
      <point x="537.0" y="99.0"/>
      <point x="599.0" y="129.0"/>
      <point x="642.0" y="180.0" type="curve"/>
      <point x="599.0" y="215.0" type="line"/>
      <point x="563.0" y="174.0"/>
      <point x="522.0" y="153.0"/>
      <point x="458.0" y="153.0" type="curve" smooth="yes"/>
      <point x="351.0" y="153.0"/>
      <point x="264.0" y="237.0"/>
      <point x="264.0" y="355.0" type="curve" smooth="yes"/>
      <point x="264.0" y="473.0"/>
      <point x="344.0" y="559.0"/>
      <point x="456.0" y="559.0" type="curve" smooth="yes"/>
      <point x="510.0" y="559.0"/>
      <point x="558.0" y="544.0"/>
      <point x="594.0" y="498.0" type="curve"/>
      <point x="637.0" y="535.0" type="line"/>
      <point x="593.0" y="588.0"/>
      <point x="532.0" y="613.0"/>
      <point x="456.0" y="613.0" type="curve" smooth="yes"/>
      <point x="311.0" y="613.0"/>
      <point x="202.0" y="500.0"/>
      <point x="202.0" y="355.0" type="curve" smooth="yes"/>
      <point x="202.0" y="211.0"/>
      <point x="313.0" y="99.0"/>
    </contour>
  </outline>
</glyph>
<glyph name="micro" format="2">
  <advance width="555.0"/>
  <unicode hex="00B5"/>
  <anchor x="267.0" y="0.0" name="bottom"/>
  <anchor x="405.0" y="0.0" name="ogonek"/>
  <anchor x="277.0" y="490.0" name="top"/>
  <anchor x="483.0" y="490.0" name="topright"/>
  <outline>
    <contour>
      <point x="155.0" y="28.0" type="line"/>
      <point x="182.0" y="1.0"/>
      <point x="219.0" y="-13.0"/>
      <point x="261.0" y="-13.0" type="curve" smooth="yes"/>
      <point x="329.0" y="-13.0"/>
      <point x="374.0" y="27.0"/>
      <point x="401.0" y="74.0" type="curve"/>
      <point x="407.0" y="74.0" type="line"/>
      <point x="407.0" y="0.0" type="line"/>
      <point x="483.0" y="0.0" type="line"/>
      <point x="483.0" y="490.0" type="line"/>
      <point x="403.0" y="490.0" type="line"/>
      <point x="403.0" y="194.0" type="line" smooth="yes"/>
      <point x="403.0" y="112.0"/>
      <point x="347.0" y="61.0"/>
      <point x="265.0" y="61.0" type="curve" smooth="yes"/>
      <point x="198.0" y="61.0"/>
      <point x="152.0" y="112.0"/>
      <point x="152.0" y="194.0" type="curve" smooth="yes"/>
      <point x="152.0" y="490.0" type="line"/>
      <point x="72.0" y="490.0" type="line"/>
      <point x="72.0" y="-220.0" type="line"/>
      <point x="152.0" y="-220.0" type="line"/>
      <point x="152.0" y="28.0" type="line"/>
    </contour>
  </outline>
</glyph>
<glyph name="Schwa" format="2">
  <advance width="774.0"/>
  <unicode hex="018F"/>
  <outline>
    <contour>
      <point x="378.0" y="-13.0" type="curve" smooth="yes"/>
      <point x="583.0" y="-13.0"/>
      <point x="733.0" y="144.0"/>
      <point x="733.0" y="349.0" type="curve" smooth="yes"/>
      <point x="733.0" y="555.0"/>
      <point x="587.0" y="713.0"/>
      <point x="378.0" y="713.0" type="curve" smooth="yes"/>
      <point x="258.0" y="713.0"/>
      <point x="161.0" y="663.0"/>
      <point x="91.0" y="563.0" type="curve"/>
      <point x="156.0" y="520.0" type="line"/>
      <point x="204.0" y="595.0"/>
      <point x="280.0" y="637.0"/>
      <point x="377.0" y="637.0" type="curve" smooth="yes"/>
      <point x="544.0" y="637.0"/>
      <point x="646.0" y="511.0"/>
      <point x="646.0" y="349.0" type="curve" smooth="yes"/>
      <point x="646.0" y="187.0"/>
      <point x="535.0" y="63.0"/>
      <point x="377.0" y="63.0" type="curve" smooth="yes"/>
      <point x="225.0" y="63.0"/>
      <point x="126.0" y="167.0"/>
      <point x="124.0" y="318.0" type="curve"/>
      <point x="91.0" y="296.0" type="line"/>
      <point x="670.0" y="295.0" type="line"/>
      <point x="670.0" y="367.0" type="line"/>
      <point x="44.0" y="367.0" type="line"/>
      <point x="42.0" y="355.0"/>
      <point x="41.0" y="338.0"/>
      <point x="41.0" y="321.0" type="curve" smooth="yes"/>
      <point x="41.0" y="126.0"/>
      <point x="179.0" y="-13.0"/>
    </contour>
  </outline>
</glyph>
<glyph name="Fhook" format="2">
  <advance width="550.0"/>
  <unicode hex="0191"/>
  <anchor x="127.0" y="0.0" name="bottom"/>
  <anchor x="107.0" y="0.0" name="ogonek"/>
  <anchor x="298.0" y="700.0" name="top"/>
  <outline>
    <contour>
      <point x="-13.0" y="-233.0" type="curve" smooth="yes"/>
      <point x="100.0" y="-230.0"/>
      <point x="169.0" y="-161.0"/>
      <point x="169.0" y="-35.0" type="curve" smooth="yes"/>
      <point x="169.0" y="0.0" type="line"/>
      <point x="130.0" y="107.0" type="line"/>
      <point x="85.0" y="0.0" type="line"/>
      <point x="85.0" y="-32.0" type="line" smooth="yes"/>
      <point x="85.0" y="-109.0"/>
      <point x="45.0" y="-152.0"/>
      <point x="-16.0" y="-152.0" type="curve" smooth="yes"/>
      <point x="-49.0" y="-152.0"/>
      <point x="-77.0" y="-144.0"/>
      <point x="-99.0" y="-118.0" type="curve"/>
      <point x="-156.0" y="-186.0" type="line"/>
      <point x="-119.0" y="-223.0"/>
      <point x="-70.0" y="-234.0"/>
    </contour>
    <component base="F" xOffset="3.0"/>
  </outline>
</glyph>
<glyph name="macroncomb" format="2">
  <unicode hex="0304"/>
  <anchor x="0.0" y="490.0" name="_top"/>
  <anchor x="0.0" y="640.0" name="top"/>
  <outline>
    <contour>
      <point x="-135.0" y="617.0" type="line"/>
      <point x="135.0" y="617.0" type="line"/>
      <point x="135.0" y="669.0" type="line"/>
      <point x="-135.0" y="669.0" type="line"/>
    </contour>
  </outline>
</glyph>
<glyph name="ringcomb" format="2">
  <unicode hex="030A"/>
  <anchor x="0.0" y="490.0" name="_top"/>
  <anchor x="0.0" y="720.0" name="top"/>
  <outline>
    <contour>
      <point x="0.0" y="547.0" type="curve" smooth="yes"/>
      <point x="59.0" y="547.0"/>
      <point x="108.0" y="594.0"/>
      <point x="108.0" y="652.0" type="curve" smooth="yes"/>
      <point x="108.0" y="710.0"/>
      <point x="59.0" y="757.0"/>
      <point x="0.0" y="757.0" type="curve" smooth="yes"/>
      <point x="-58.0" y="757.0"/>
      <point x="-108.0" y="710.0"/>
      <point x="-108.0" y="652.0" type="curve" smooth="yes"/>
      <point x="-108.0" y="594.0"/>
      <point x="-58.0" y="547.0"/>
    </contour>
    <contour>
      <point x="0.0" y="594.0" type="curve" smooth="yes"/>
      <point x="-33.0" y="594.0"/>
      <point x="-55.0" y="620.0"/>
      <point x="-55.0" y="652.0" type="curve" smooth="yes"/>
      <point x="-55.0" y="686.0"/>
      <point x="-33.0" y="709.0"/>
      <point x="0.0" y="709.0" type="curve" smooth="yes"/>
      <point x="33.0" y="709.0"/>
      <point x="55.0" y="686.0"/>
      <point x="55.0" y="652.0" type="curve" smooth="yes"/>
      <point x="55.0" y="620.0"/>
      <point x="33.0" y="594.0"/>
    </contour>
  </outline>
</glyph>
<glyph name="hungarumlautcomb" format="2">
  <unicode hex="030B"/>
  <anchor x="0.0" y="490.0" name="_top"/>
  <anchor x="0.0" y="670.0" name="top"/>
  <outline>
    <contour>
      <point x="43.0" y="547.0" type="line"/>
      <point x="82.0" y="547.0" type="line"/>
      <point x="156.0" y="706.0" type="line"/>
      <point x="76.0" y="706.0" type="line"/>
    </contour>
    <contour>
      <point x="-82.0" y="547.0" type="line"/>
      <point x="-43.0" y="547.0" type="line"/>
      <point x="31.0" y="706.0" type="line"/>
      <point x="-49.0" y="706.0" type="line"/>
    </contour>
  </outline>
</glyph>
<glyph name="notequal" format="2">
  <advance width="596.0"/>
  <unicode hex="2260"/>
  <outline>
    <contour>
      <point x="189.0" y="216.0" type="line"/>
      <point x="279.0" y="216.0" type="line"/>
      <point x="426.0" y="443.0" type="line"/>
      <point x="336.0" y="443.0" type="line"/>
    </contour>
    <contour>
      <point x="100.0" y="70.0" type="line"/>
      <point x="193.0" y="70.0" type="line"/>
      <point x="283.0" y="216.0" type="line"/>
      <point x="191.0" y="216.0" type="line"/>
    </contour>
    <contour>
      <point x="332.0" y="443.0" type="line"/>
      <point x="424.0" y="443.0" type="line"/>
      <point x="497.0" y="561.0" type="line"/>
      <point x="405.0" y="561.0" type="line"/>
    </contour>
    <component base="equal"/>
  </outline>
</glyph>
<glyph name="lozenge" format="2">
  <advance width="558.0"/>
  <unicode hex="25CA"/>
  <outline>
    <contour>
      <point x="254.0" y="0.0" type="line"/>
      <point x="304.0" y="0.0" type="line"/>
      <point x="523.0" y="354.0" type="line"/>
      <point x="304.0" y="700.0" type="line"/>
      <point x="254.0" y="700.0" type="line"/>
      <point x="35.0" y="354.0" type="line"/>
    </contour>
    <contour>
      <point x="279.0" y="70.0" type="line"/>
      <point x="278.0" y="77.0"/>
      <point x="274.0" y="84.0"/>
      <point x="271.0" y="89.0" type="curve" smooth="yes"/>
      <point x="117.0" y="354.0" type="line"/>
      <point x="271.0" y="612.0" type="line" smooth="yes"/>
      <point x="274.0" y="617.0"/>
      <point x="276.0" y="624.0"/>
      <point x="278.0" y="631.0" type="curve"/>
      <point x="282.0" y="631.0" type="line"/>
      <point x="283.0" y="624.0"/>
      <point x="286.0" y="617.0"/>
      <point x="289.0" y="612.0" type="curve" smooth="yes"/>
      <point x="441.0" y="354.0" type="line"/>
      <point x="289.0" y="89.0" type="line" smooth="yes"/>
      <point x="286.0" y="84.0"/>
      <point x="283.0" y="77.0"/>
      <point x="282.0" y="70.0" type="curve"/>
    </contour>
  </outline>
</glyph>
<glyph name="a.ss01" format="2">
  <advance width="528.0"/>
  <anchor x="252.0" y="0.0" name="bottom"/>
  <anchor x="383.0" y="0.0" name="ogonek"/>
  <anchor x="256.0" y="490.0" name="top"/>
  <outline>
    <contour>
      <point x="213.0" y="-13.0" type="curve" smooth="yes"/>
      <point x="314.0" y="-13.0"/>
      <point x="357.0" y="38.0"/>
      <point x="379.0" y="74.0" type="curve"/>
      <point x="385.0" y="74.0" type="line"/>
      <point x="385.0" y="0.0" type="line"/>
      <point x="461.0" y="0.0" type="line"/>
      <point x="461.0" y="321.0" type="line" smooth="yes"/>
      <point x="461.0" y="440.0"/>
      <point x="357.0" y="503.0"/>
      <point x="260.0" y="503.0" type="curve" smooth="yes"/>
      <point x="167.0" y="503.0"/>
      <point x="108.0" y="475.0"/>
      <point x="50.0" y="413.0" type="curve"/>
      <point x="104.0" y="357.0" type="line"/>
      <point x="147.0" y="405.0"/>
      <point x="194.0" y="429.0"/>
      <point x="256.0" y="429.0" type="curve" smooth="yes"/>
      <point x="319.0" y="429.0"/>
      <point x="381.0" y="395.0"/>
      <point x="381.0" y="323.0" type="curve" smooth="yes"/>
      <point x="381.0" y="281.0" type="line"/>
      <point x="394.0" y="292.0" type="line"/>
      <point x="282.0" y="285.0" type="line" smooth="yes"/>
      <point x="133.0" y="276.0"/>
      <point x="47.0" y="227.0"/>
      <point x="47.0" y="129.0" type="curve" smooth="yes"/>
      <point x="47.0" y="48.0"/>
      <point x="118.0" y="-13.0"/>
    </contour>
    <contour>
      <point x="227.0" y="55.0" type="curve" smooth="yes"/>
      <point x="161.0" y="55.0"/>
      <point x="127.0" y="82.0"/>
      <point x="127.0" y="133.0" type="curve" smooth="yes"/>
      <point x="127.0" y="187.0"/>
      <point x="180.0" y="212.0"/>
      <point x="288.0" y="219.0" type="curve" smooth="yes"/>
      <point x="392.0" y="226.0" type="line"/>
      <point x="381.0" y="241.0" type="line"/>
      <point x="381.0" y="203.0" type="line" smooth="yes"/>
      <point x="381.0" y="124.0"/>
      <point x="324.0" y="55.0"/>
    </contour>
  </outline>
</glyph>
<glyph name="comma.ss04" format="2">
  <advance width="202.0"/>
  <outline>
    <contour>
      <point x="68.0" y="113.0" type="line"/>
      <point x="62.0" y="50.0" type="line" smooth="yes"/>
      <point x="51.0" y="-49.0"/>
      <point x="30.0" y="-116.0"/>
      <point x="4.0" y="-164.0" type="curve"/>
      <point x="29.0" y="-180.0" type="line"/>
      <point x="89.0" y="-139.0"/>
      <point x="118.0" y="-66.0"/>
      <point x="140.0" y="50.0" type="curve" smooth="yes"/>
      <point x="150.0" y="103.0" type="line"/>
    </contour>
  </outline>
</glyph>
<glyph name="euro.tf" format="2">
  <advance width="596.0"/>
  <outline>
    <contour>
      <point x="372.0" y="17.0" type="curve" smooth="yes"/>
      <point x="459.0" y="17.0"/>
      <point x="538.0" y="52.0"/>
      <point x="593.0" y="107.0" type="curve"/>
      <point x="543.0" y="157.0" type="line"/>
      <point x="499.0" y="115.0"/>
      <point x="442.0" y="89.0"/>
      <point x="377.0" y="89.0" type="curve" smooth="yes"/>
      <point x="285.0" y="89.0"/>
      <point x="175.0" y="147.0"/>
      <point x="157.0" y="283.0" type="curve" smooth="yes"/>
      <point x="155.0" y="304.0" type="line"/>
      <point x="151.0" y="344.0"/>
      <point x="150.0" y="360.0"/>
      <point x="154.0" y="400.0" type="curve"/>
      <point x="157.0" y="422.0" type="line" smooth="yes"/>
      <point x="176.0" y="565.0"/>
      <point x="285.0" y="611.0"/>
      <point x="373.0" y="611.0" type="curve" smooth="yes"/>
      <point x="443.0" y="611.0"/>
      <point x="476.0" y="594.0"/>
      <point x="537.0" y="547.0" type="curve"/>
      <point x="584.0" y="606.0" type="line"/>
      <point x="521.0" y="658.0"/>
      <point x="467.0" y="683.0"/>
      <point x="372.0" y="683.0" type="curve" smooth="yes"/>
      <point x="180.0" y="683.0"/>
      <point x="68.0" y="530.0"/>
      <point x="68.0" y="349.0" type="curve" smooth="yes"/>
      <point x="68.0" y="169.0"/>
      <point x="188.0" y="17.0"/>
    </contour>
    <contour>
      <point x="-25.0" y="243.0" type="line"/>
      <point x="384.0" y="243.0" type="line"/>
      <point x="425.0" y="315.0" type="line"/>
      <point x="24.0" y="315.0" type="line"/>
    </contour>
    <contour>
      <point x="-28.0" y="385.0" type="line"/>
      <point x="464.0" y="385.0" type="line"/>
      <point x="506.0" y="457.0" type="line"/>
      <point x="22.0" y="457.0" type="line"/>
    </contour>
  </outline>
</glyph>
<glyph name="guarani.tf" format="2">
  <advance width="596.0"/>
  <outline>
    <contour>
      <point x="307.0" y="21.0" type="curve" smooth="yes"/>
      <point x="476.0" y="21.0"/>
      <point x="587.0" y="149.0"/>
      <point x="587.0" y="328.0" type="curve" smooth="yes"/>
      <point x="587.0" y="344.0"/>
      <point x="586.0" y="360.0"/>
      <point x="584.0" y="371.0" type="curve"/>
      <point x="275.0" y="371.0" type="line"/>
      <point x="275.0" y="307.0" type="line"/>
      <point x="539.0" y="307.0" type="line"/>
      <point x="508.0" y="326.0" type="line"/>
      <point x="506.0" y="187.0"/>
      <point x="432.0" y="91.0"/>
      <point x="308.0" y="91.0" type="curve" smooth="yes"/>
      <point x="188.0" y="91.0"/>
      <point x="92.0" y="205.0"/>
      <point x="92.0" y="354.0" type="curve" smooth="yes"/>
      <point x="92.0" y="503.0"/>
      <point x="179.0" y="619.0"/>
      <point x="308.0" y="619.0" type="curve" smooth="yes"/>
      <point x="381.0" y="619.0"/>
      <point x="427.0" y="595.0"/>
      <point x="467.0" y="539.0" type="curve"/>
      <point x="527.0" y="585.0" type="line"/>
      <point x="467.0" y="660.0"/>
      <point x="410.0" y="689.0"/>
      <point x="307.0" y="689.0" type="curve" smooth="yes"/>
      <point x="138.0" y="689.0"/>
      <point x="10.0" y="544.0"/>
      <point x="10.0" y="354.0" type="curve" smooth="yes"/>
      <point x="10.0" y="165.0"/>
      <point x="142.0" y="21.0"/>
    </contour>
    <contour>
      <point x="282.0" y="653.0" type="line"/>
      <point x="352.0" y="653.0" type="line"/>
      <point x="352.0" y="775.0" type="line"/>
      <point x="282.0" y="775.0" type="line"/>
    </contour>
    <contour>
      <point x="282.0" y="-69.0" type="line"/>
      <point x="352.0" y="-69.0" type="line"/>
      <point x="352.0" y="53.0" type="line"/>
      <point x="282.0" y="53.0" type="line"/>
    </contour>
  </outline>
</glyph>
<glyph name="horn.alt" format="2">
  <advance width="300.0"/>
  <anchor x="110.0" y="490.0" name="_topright"/>
  <outline>
    <contour>
      <point x="62.0" y="438.0" type="line"/>
      <point x="140.0" y="438.0"/>
      <point x="206.0" y="467.0"/>
      <point x="206.0" y="547.0" type="curve" smooth="yes"/>
      <point x="206.0" y="567.0"/>
      <point x="202.0" y="585.0"/>
      <point x="195.0" y="600.0" type="curve"/>
      <point x="128.0" y="600.0" type="line"/>
      <point x="134.0" y="583.0"/>
      <point x="137.0" y="569.0"/>
      <point x="137.0" y="559.0" type="curve" smooth="yes"/>
      <point x="138.0" y="525.0"/>
      <point x="123.0" y="490.0"/>
      <point x="30.0" y="490.0" type="curve"/>
    </contour>
  </outline>
</glyph>
<glyph name="lari.tf" format="2">
  <advance width="596.0"/>
  <outline>
    <contour>
      <point x="492.0" y="396.0" type="curve"/>
      <point x="576.0" y="396.0" type="line"/>
      <point x="564.0" y="557.0"/>
      <point x="479.0" y="673.0"/>
      <point x="311.0" y="673.0" type="curve" smooth="yes"/>
      <point x="135.0" y="673.0"/>
      <point x="43.0" y="530.0"/>
      <point x="43.0" y="366.0" type="curve" smooth="yes"/>
      <point x="43.0" y="253.0"/>
      <point x="96.0" y="157.0"/>
      <point x="175.0" y="109.0" type="curve"/>
      <point x="175.0" y="106.0" type="line"/>
      <point x="21.0" y="106.0" type="line"/>
      <point x="21.0" y="30.0" type="line"/>
      <point x="566.0" y="30.0" type="line"/>
      <point x="566.0" y="106.0" type="line"/>
      <point x="410.0" y="106.0" type="line" smooth="yes"/>
      <point x="233.0" y="106.0"/>
      <point x="127.0" y="219.0"/>
      <point x="127.0" y="366.0" type="curve" smooth="yes"/>
      <point x="127.0" y="500.0"/>
      <point x="183.0" y="597.0"/>
      <point x="311.0" y="597.0" type="curve" smooth="yes"/>
      <point x="433.0" y="597.0"/>
      <point x="482.0" y="522.0"/>
    </contour>
    <contour>
      <point x="334.0" y="775.0" type="line"/>
      <point x="334.0" y="395.0" type="line"/>
      <point x="404.0" y="395.0" type="line"/>
      <point x="404.0" y="775.0" type="line"/>
    </contour>
    <contour>
      <point x="218.0" y="775.0" type="line"/>
      <point x="218.0" y="395.0" type="line"/>
      <point x="288.0" y="395.0" type="line"/>
      <point x="288.0" y="775.0" type="line"/>
    </contour>
  </outline>
</glyph>
<glyph name="micro.ss10" format="2">
  <advance width="546.0"/>
  <outline>
    <contour>
      <point x="72.0" y="-220.0" type="line"/>
      <point x="152.0" y="-220.0" type="line"/>
      <point x="152.0" y="35.0" type="line"/>
      <point x="155.0" y="35.0" type="line"/>
      <point x="187.0" y="4.0"/>
      <point x="232.0" y="-12.0"/>
      <point x="285.0" y="-12.0" type="curve" smooth="yes"/>
      <point x="401.0" y="-12.0"/>
      <point x="479.0" y="65.0"/>
      <point x="479.0" y="205.0" type="curve" smooth="yes"/>
      <point x="479.0" y="490.0" type="line"/>
      <point x="400.0" y="490.0" type="line"/>
      <point x="400.0" y="205.0" type="line" smooth="yes"/>
      <point x="400.0" y="110.0"/>
      <point x="357.0" y="61.0"/>
      <point x="276.0" y="61.0" type="curve" smooth="yes"/>
      <point x="195.0" y="61.0"/>
      <point x="152.0" y="110.0"/>
      <point x="152.0" y="205.0" type="curve" smooth="yes"/>
      <point x="152.0" y="490.0" type="line"/>
      <point x="72.0" y="490.0" type="line"/>
    </contour>
  </outline>
</glyph>
<glyph name="zero.tf" format="2">
  <advance width="596.0"/>
  <outline>
    <contour>
      <point x="298.0" y="-13.0" type="curve" smooth="yes"/>
      <point x="438.0" y="-12.0"/>
      <point x="540.0" y="92.0"/>
      <point x="540.0" y="239.0" type="curve" smooth="yes"/>
      <point x="540.0" y="471.0" type="line" smooth="yes"/>
      <point x="540.0" y="606.0"/>
      <point x="438.0" y="712.0"/>
      <point x="298.0" y="711.0" type="curve" smooth="yes"/>
      <point x="158.0" y="710.0"/>
      <point x="56.0" y="606.0"/>
      <point x="56.0" y="466.0" type="curve" smooth="yes"/>
      <point x="56.0" y="232.0" type="line" smooth="yes"/>
      <point x="56.0" y="92.0"/>
      <point x="158.0" y="-14.0"/>
    </contour>
    <contour>
      <point x="298.0" y="64.0" type="curve" smooth="yes"/>
      <point x="209.0" y="64.0"/>
      <point x="144.0" y="132.0"/>
      <point x="144.0" y="244.0" type="curve" smooth="yes"/>
      <point x="144.0" y="465.0" type="line" smooth="yes"/>
      <point x="144.0" y="569.0"/>
      <point x="209.0" y="634.0"/>
      <point x="298.0" y="634.0" type="curve" smooth="yes"/>
      <point x="387.0" y="634.0"/>
      <point x="452.0" y="566.0"/>
      <point x="452.0" y="460.0" type="curve" smooth="yes"/>
      <point x="452.0" y="238.0" type="line" smooth="yes"/>
      <point x="452.0" y="129.0"/>
      <point x="387.0" y="64.0"/>
    </contour>
  </outline>
</glyph>
